HIERARCHY
ROOT Hips
{
  OFFSET 355.822 88.6557 206.848
  CHANNELS 6 Xposition Yposition Zposition Zrotation Xrotation Yrotation
  JOINT RightUpLeg
  {
    OFFSET -9.2664 -1.55826 0.04368
    CHANNELS 6 Xposition Yposition Zposition Zrotation Xrotation Yrotation
    JOINT RightLeg
    {
      OFFSET 0.00788722 -41.8912 0.0702151
      CHANNELS 6 Xposition Yposition Zposition Zrotation Xrotation Yrotation
      JOINT RightFoot
      {
        OFFSET 0.317057 -42.9389 -0.14782
        CHANNELS 6 Xposition Yposition Zposition Zrotation Xrotation Yrotation
        End Site
        {
          OFFSET 0 -7.69 17.5
        }
      }
    }
  }
  JOINT LeftUpLeg
  {
    OFFSET 9.25768 -1.58742 -0.0287322
    CHANNELS 6 Xposition Yposition Zposition Zrotation Xrotation Yrotation
    JOINT LeftLeg
    {
      OFFSET 0.0171529 -41.8736 -0.0147533
      CHANNELS 6 Xposition Yposition Zposition Zrotation Xrotation Yrotation
      JOINT LeftFoot
      {
        OFFSET 1.11986 -41.0202 -0.171423
        CHANNELS 6 Xposition Yposition Zposition Zrotation Xrotation Yrotation
        End Site
        {
          OFFSET 0 -7.69 17.5
        }
      }
    }
  }
  JOINT Spine
  {
    OFFSET -0.0140412 14.3042 0.0382179
    CHANNELS 6 Xposition Yposition Zposition Zrotation Xrotation Yrotation
    JOINT Spine1
    {
      OFFSET -0.00339557 9.71854 0.0114188
      CHANNELS 6 Xposition Yposition Zposition Zrotation Xrotation Yrotation
      JOINT Spine2
      {
        OFFSET 0.00732806 10.1205 0.0051727
        CHANNELS 6 Xposition Yposition Zposition Zrotation Xrotation Yrotation
        JOINT Spine3
        {
          OFFSET 0.0120182 9.72552 0.0118288
          CHANNELS 6 Xposition Yposition Zposition Zrotation Xrotation Yrotation
          JOINT Neck
          {
            OFFSET -0.0123442 10.3845 0.0106726
            CHANNELS 6 Xposition Yposition Zposition Zrotation Xrotation Yrotation
            JOINT Head
            {
              OFFSET 0.00277037 9.46904 0.0122453
              CHANNELS 6 Xposition Yposition Zposition Zrotation Xrotation Yrotation
              End Site
              {
                OFFSET 0 15.95 0
              }
            }
          }
          JOINT RightShoulder
          {
            OFFSET -3.19591 6.91307 0.0096498
            CHANNELS 6 Xposition Yposition Zposition Zrotation Xrotation Yrotation
            JOINT RightArm
            {
              OFFSET -12.7948 -0.0218906 0.00466241
              CHANNELS 6 Xposition Yposition Zposition Zrotation Xrotation Yrotation
              JOINT RightForeArm
              {
                OFFSET -26.5126 -0.0292843 0.0311862
                CHANNELS 6 Xposition Yposition Zposition Zrotation Xrotation Yrotation
                JOINT RightHand
                {
                  OFFSET -25.9932 -0.0473756 0.0119724
                  CHANNELS 6 Xposition Yposition Zposition Zrotation Xrotation Yrotation
                  JOINT RightHandThumb1
                  {
                    OFFSET -2.48905 0.190105 3.12053
                    CHANNELS 6 Xposition Yposition Zposition Zrotation Xrotation Yrotation
                    JOINT RightHandThumb2
                    {
                      OFFSET -3.68274 0 0
                      CHANNELS 6 Xposition Yposition Zposition Zrotation Xrotation Yrotation
                      JOINT RightHandThumb3
                      {
                        OFFSET -2.55832 0 0
                        CHANNELS 6 Xposition Yposition Zposition Zrotation Xrotation Yrotation
                        End Site
                        {
                          OFFSET -2.194 0 0
                        }
                      }
                    }
                  }
                  JOINT RightInHandIndex
                  {
                    OFFSET -3.22368 0.508421 1.97842
                    CHANNELS 6 Xposition Yposition Zposition Zrotation Xrotation Yrotation
                    JOINT RightHandIndex1
                    {
                      OFFSET -5.21684 -0.091368 0.999158
                      CHANNELS 6 Xposition Yposition Zposition Zrotation Xrotation Yrotation
                      JOINT RightHandIndex2
                      {
                        OFFSET -3.61937 0 0
                        CHANNELS 6 Xposition Yposition Zposition Zrotation Xrotation Yrotation
                        JOINT RightHandIndex3
                        {
                          OFFSET -2.0521 0 0
                          CHANNELS 6 Xposition Yposition Zposition Zrotation Xrotation Yrotation
                          End Site
                          {
                            OFFSET -1.805 0 0
                          }
                        }
                      }
                    }
                  }
                  JOINT RightInHandMiddle
                  {
                    OFFSET -3.38211 0.517263 0.756737
                    CHANNELS 6 Xposition Yposition Zposition Zrotation Xrotation Yrotation
                    JOINT RightHandMiddle1
                    {
                      OFFSET -5.17411 -0.084 0.313895
                      CHANNELS 6 Xposition Yposition Zposition Zrotation Xrotation Yrotation
                      JOINT RightHandMiddle2
                      {
                        OFFSET -3.94947 0 0
                        CHANNELS 6 Xposition Yposition Zposition Zrotation Xrotation Yrotation
                        JOINT RightHandMiddle3
                        {
                          OFFSET -2.47579 0 0
                          CHANNELS 6 Xposition Yposition Zposition Zrotation Xrotation Yrotation
                          End Site
                          {
                            OFFSET -1.975 0 0
                          }
                        }
                      }
                    }
                  }
                  JOINT RightInHandRing
                  {
                    OFFSET -3.36516 0.537895 -0.128947
                    CHANNELS 6 Xposition Yposition Zposition Zrotation Xrotation Yrotation
                    JOINT RightHandRing1
                    {
                      OFFSET -4.63474 -0.022105 -0.478947
                      CHANNELS 6 Xposition Yposition Zposition Zrotation Xrotation Yrotation
                      JOINT RightHandRing2
                      {
                        OFFSET -3.44238 0 0
                        CHANNELS 6 Xposition Yposition Zposition Zrotation Xrotation Yrotation
                        JOINT RightHandRing3
                        {
                          OFFSET -2.3881 0 0
                          CHANNELS 6 Xposition Yposition Zposition Zrotation Xrotation Yrotation
                          End Site
                          {
                            OFFSET -1.857 0 0
                          }
                        }
                      }
                    }
                  }
                  JOINT RightInHandPinky
                  {
                    OFFSET -3.16105 0.469368 -1.20179
                    CHANNELS 6 Xposition Yposition Zposition Zrotation Xrotation Yrotation
                    JOINT RightHandPinky1
                    {
                      OFFSET -4.14105 -0.022105 -1.09053
                      CHANNELS 6 Xposition Yposition Zposition Zrotation Xrotation Yrotation
                      JOINT RightHandPinky2
                      {
                        OFFSET -2.75653 0 0
                        CHANNELS 6 Xposition Yposition Zposition Zrotation Xrotation Yrotation
                        JOINT RightHandPinky3
                        {
                          OFFSET -1.74189 0 0
                          CHANNELS 6 Xposition Yposition Zposition Zrotation Xrotation Yrotation
                          End Site
                          {
                            OFFSET -1.645 0 0
                          }
                        }
                      }
                    }
                  }
                }
              }
            }
          }
          JOINT LeftShoulder
          {
            OFFSET 3.21765 6.92976 -0.013647
            CHANNELS 6 Xposition Yposition Zposition Zrotation Xrotation Yrotation
            JOINT LeftArm
            {
              OFFSET 12.808 -0.00728113 -0.0379567
              CHANNELS 6 Xposition Yposition Zposition Zrotation Xrotation Yrotation
              JOINT LeftForeArm
              {
                OFFSET 26.5023 -0.0205295 -0.0142589
                CHANNELS 6 Xposition Yposition Zposition Zrotation Xrotation Yrotation
                JOINT LeftHand
                {
                  OFFSET 25.9963 -0.00968247 -0.0184874
                  CHANNELS 6 Xposition Yposition Zposition Zrotation Xrotation Yrotation
                  JOINT LeftHandThumb1
                  {
                    OFFSET 2.48905 0.190105 3.12053
                    CHANNELS 6 Xposition Yposition Zposition Zrotation Xrotation Yrotation
                    JOINT LeftHandThumb2
                    {
                      OFFSET 3.68274 0 0
                      CHANNELS 6 Xposition Yposition Zposition Zrotation Xrotation Yrotation
                      JOINT LeftHandThumb3
                      {
                        OFFSET 2.55832 0 0
                        CHANNELS 6 Xposition Yposition Zposition Zrotation Xrotation Yrotation
                        End Site
                        {
                          OFFSET 2.194 0 0
                        }
                      }
                    }
                  }
                  JOINT LeftInHandIndex
                  {
                    OFFSET 3.22368 0.508421 1.97842
                    CHANNELS 6 Xposition Yposition Zposition Zrotation Xrotation Yrotation
                    JOINT LeftHandIndex1
                    {
                      OFFSET 5.21684 -0.091368 0.999158
                      CHANNELS 6 Xposition Yposition Zposition Zrotation Xrotation Yrotation
                      JOINT LeftHandIndex2
                      {
                        OFFSET 3.61937 0 0
                        CHANNELS 6 Xposition Yposition Zposition Zrotation Xrotation Yrotation
                        JOINT LeftHandIndex3
                        {
                          OFFSET 2.0521 0 0
                          CHANNELS 6 Xposition Yposition Zposition Zrotation Xrotation Yrotation
                          End Site
                          {
                            OFFSET 1.805 0 0
                          }
                        }
                      }
                    }
                  }
                  JOINT LeftInHandMiddle
                  {
                    OFFSET 3.38211 0.517263 0.756737
                    CHANNELS 6 Xposition Yposition Zposition Zrotation Xrotation Yrotation
                    JOINT LeftHandMiddle1
                    {
                      OFFSET 5.17411 -0.084 0.313895
                      CHANNELS 6 Xposition Yposition Zposition Zrotation Xrotation Yrotation
                      JOINT LeftHandMiddle2
                      {
                        OFFSET 3.94947 0 0
                        CHANNELS 6 Xposition Yposition Zposition Zrotation Xrotation Yrotation
                        JOINT LeftHandMiddle3
                        {
                          OFFSET 2.47579 0 0
                          CHANNELS 6 Xposition Yposition Zposition Zrotation Xrotation Yrotation
                          End Site
                          {
                            OFFSET 1.975 0 0
                          }
                        }
                      }
                    }
                  }
                  JOINT LeftInHandRing
                  {
                    OFFSET 3.36516 0.537895 -0.128947
                    CHANNELS 6 Xposition Yposition Zposition Zrotation Xrotation Yrotation
                    JOINT LeftHandRing1
                    {
                      OFFSET 4.63474 -0.022105 -0.478947
                      CHANNELS 6 Xposition Yposition Zposition Zrotation Xrotation Yrotation
                      JOINT LeftHandRing2
                      {
                        OFFSET 3.44238 0 0
                        CHANNELS 6 Xposition Yposition Zposition Zrotation Xrotation Yrotation
                        JOINT LeftHandRing3
                        {
                          OFFSET 2.3881 0 0
                          CHANNELS 6 Xposition Yposition Zposition Zrotation Xrotation Yrotation
                          End Site
                          {
                            OFFSET 1.857 0 0
                          }
                        }
                      }
                    }
                  }
                  JOINT LeftInHandPinky
                  {
                    OFFSET 3.16105 0.469368 -1.20179
                    CHANNELS 6 Xposition Yposition Zposition Zrotation Xrotation Yrotation
                    JOINT LeftHandPinky1
                    {
                      OFFSET 4.14105 -0.022105 -1.09053
                      CHANNELS 6 Xposition Yposition Zposition Zrotation Xrotation Yrotation
                      JOINT LeftHandPinky2
                      {
                        OFFSET 2.75653 0 0
                        CHANNELS 6 Xposition Yposition Zposition Zrotation Xrotation Yrotation
                        JOINT LeftHandPinky3
                        {
                          OFFSET 1.74189 0 0
                          CHANNELS 6 Xposition Yposition Zposition Zrotation Xrotation Yrotation
                          End Site
                          {
                            OFFSET 1.645 0 0
                          }
                        }
                      }
                    }
                  }
                }
              }
            }
          }
        }
      }
    }
  }
}
MOTION
Frames:	3
Frame Time:	0.00833333
355.822 88.6557 206.848 22.5774 15.3333 -62.0017 -9.2664 -1.55826 0.04368 -21.104 -52.8792 -25.3948 0.00788722 -41.8912 0.0702151 -0.579398 26.2264 -18.245 0.317057 -42.9389 -0.14782 8.81845 5.79887 24.7037 9.25768 -1.58742 -0.0287322 11.3615 -46.8441 -8.12722 0.0171529 -41.8736 -0.0147533 3.41126 31.1959 1.59525 1.11986 -41.0202 -0.171423 -13.637 -10.9741 -15.4542 -0.0140412 14.3042 0.0382179 -4.1996 16.2896 10.3594 -0.00339557 9.71854 0.0114188 -0.769212 4.03739 2.50561 0.00732806 10.1205 0.0051727 -1.31913 6.41977 4.17449 0.0120182 9.72552 0.0118288 -0.335746 -0.342373 -0.373522 -0.0123442 10.3845 0.0106726 -0.336097 -0.345161 -0.3716 0.00277037 9.46904 0.0122453 -6.35195 -6.40169 -6.51649 -3.19591 6.91307 0.0096498 -0.712862 -15.0038 22.487 -12.7948 -0.0218906 0.00466241 69.8525 2.44083 53.7643 -26.5126 -0.0292843 0.0311862 10.1742 -46.922 -5.84152 -25.9932 -0.0473756 0.0119724 17.3555 -22.2451 -18.8307 -2.48905 0.190105 3.12053 28.184 10.7294 19.1592 -3.68274 0 -5.68434e-14 -4.21105e-15 -5.56597e-15 -10 -2.55832 0 0 -3.51003e-15 -1.59028e-15 -10 -3.22368 0.508421 1.97842 -3.18055e-15 0 3.18055e-15 -5.21684 -0.091368 0.999158 19.9818 0.871897 2.3964 -3.61937 2.84217e-14 -2.84217e-14 24 0 -0 -2.0521 -7.10543e-15 0 20 -1.59028e-15 3.18055e-15 -3.38211 0.517263 0.756737 -3.18055e-15 0 3.18055e-15 -5.17411 -0.084 0.313895 20 3.18055e-15 -0 -3.94947 0 2.84217e-14 24 -1.59028e-15 9.54166e-15 -2.47579 1.42109e-14 -2.84217e-14 20 4.27387e-15 -6.36111e-15 -3.36516 0.537895 -0.128947 -3.18055e-15 0 3.18055e-15 -4.63474 -0.022105 -0.478947 19.9748 -1.02565 -2.81938 -3.44238 0 2.84217e-14 24 -3.18055e-15 1.59028e-14 -2.3881 0 0 20 -1.06847e-15 3.18055e-15 -3.16105 0.469368 -1.20179 -3.18055e-15 0 3.18055e-15 -4.14105 -0.022105 -1.09053 19.7815 -3.00948 -8.30515 -2.75653 -2.84217e-14 0 24 -1.59028e-15 -0 -1.74189 0 -1.42109e-14 20 -2.5842e-15 3.18055e-15 3.21765 6.92976 -0.013647 15.4605 -14.1332 -30.3263 12.808 -0.00728113 -0.0379567 -36.6947 33.1446 -70.3842 26.5023 -0.0205295 -0.0142589 32.9906 -83.921 32.9443 25.9963 -0.00968247 -0.0184874 -26.2709 -20.8086 6.32143 2.48905 0.190105 3.12053 -28.184 10.7294 -19.1592 3.68274 -1.42109e-14 2.84217e-14 -3.01685e-15 7.95139e-15 10 2.55832 1.42109e-14 0 3.72279e-15 6.36111e-15 10 3.22368 0.508421 1.97842 -1.59028e-15 -3.18055e-15 -3.18055e-15 5.21684 -0.091368 0.999158 -19.9818 0.871897 -2.3964 3.61937 0 0 -24 -2.78299e-15 3.18055e-15 2.0521 1.06581e-14 0 -20 1.59028e-15 -6.36111e-15 3.38211 0.517263 0.756737 -1.59028e-15 -3.18055e-15 -3.18055e-15 5.17411 -0.084 0.313895 -20 4.77083e-15 -0 3.94947 -2.84217e-14 -2.84217e-14 -24 -7.95139e-16 1.59028e-14 2.47579 -7.10543e-15 -2.84217e-14 -20 -3.18055e-15 3.18055e-15 3.36516 0.537895 -0.128947 -1.59028e-15 -3.18055e-15 -3.18055e-15 4.63474 -0.022105 -0.478947 -19.9748 -1.02565 2.81938 3.44238 0 -2.84217e-14 -24 -3.97569e-15 -6.36111e-15 2.3881 3.55271e-15 0 -20 0 1.27222e-14 3.16105 0.469368 -1.20179 -1.59028e-15 -3.18055e-15 -3.18055e-15 4.14105 -0.022105 -1.09053 -19.7815 -3.00948 8.30515 2.75653 0 0 -24 -6.36111e-15 2.22639e-14 1.74189 7.10543e-15 0 -20 -9.54166e-15 2.22639e-14 
355.817 88.6559 206.857 22.5799 15.3341 -62.0158 -9.2667 -1.55847 0.0433165 -21.0775 -52.8838 -25.3698 0.0107848 -41.8911 0.0690319 -0.590282 26.2242 -18.2258 0.314541 -42.9395 -0.148116 8.82693 5.79908 24.6963 9.25778 -1.58766 -0.0290142 11.3624 -46.8467 -8.12648 0.0175238 -41.872 -0.0182359 3.41466 31.2043 1.6059 1.11714 -41.0204 -0.182345 -13.6361 -10.9753 -15.4539 -0.0138895 14.3042 0.0381697 -4.20377 16.2844 10.3606 -0.00329984 9.71855 0.0113016 -0.769897 4.03682 2.50579 0.00746062 10.1205 0.00511937 -1.32043 6.41859 4.17633 0.0121147 9.72552 0.0117726 -0.335449 -0.341802 -0.373391 -0.0115859 10.3844 0.0108046 -0.335801 -0.344879 -0.371478 0.00282838 9.46909 0.0129783 -6.35679 -6.392 -6.5154 -3.19588 6.91312 0.00961289 -0.712861 -14.9949 22.4989 -12.7948 -0.0220954 0.00482783 69.8415 2.44249 53.771 -26.5127 -0.0290886 0.0403582 10.1272 -46.9722 -5.91448 -25.9932 -0.0470549 0.0185758 17.3869 -22.1949 -18.805 -2.48905 0.190105 3.12053 28.184 10.7294 19.1592 -3.68274 0 0 -8.41226e-16 -4.77083e-15 -10 -2.55832 0 0 -3.79044e-15 -3.18055e-15 -10 -3.22368 0.508421 1.97842 -6.36111e-15 0 -0 -5.21684 -0.091368 0.999158 19.9818 0.871897 2.3964 -3.61937 -5.68434e-14 2.84217e-14 24 5.56597e-15 6.36111e-15 -2.0521 0 -5.68434e-14 20 5.96354e-16 -1.27222e-14 -3.38211 0.517263 0.756737 -6.36111e-15 0 -0 -5.17411 -0.084 0.313895 20 0 1.27222e-14 -3.94947 2.84217e-14 0 24 0 6.36111e-15 -2.47579 2.84217e-14 -2.84217e-14 20 -7.05686e-15 -6.36111e-15 -3.36516 0.537895 -0.128947 -6.36111e-15 0 -0 -4.63474 -0.022105 -0.478947 19.9748 -1.02565 -2.81938 -3.44238 -2.84217e-14 0 24 -1.59028e-15 3.18055e-15 -2.3881 1.42109e-14 2.84217e-14 20 -2.59662e-15 3.18055e-15 -3.16105 0.469368 -1.20179 -6.36111e-15 0 -0 -4.14105 -0.022105 -1.09053 19.7815 -3.00948 -8.30515 -2.75653 -2.84217e-14 -1.42109e-14 24 -1.59028e-15 -6.36111e-15 -1.74189 -1.42109e-14 -1.42109e-14 20 -3.97569e-16 -3.18055e-15 3.21757 6.92976 -0.0136674 15.4536 -14.1191 -30.3224 12.8091 -0.00735704 -0.0379117 -36.6797 33.1473 -70.3892 26.5023 -0.0202893 -0.0142543 33.1194 -83.9197 33.0713 25.9963 -0.00994911 -0.0183062 -26.2879 -20.7916 6.32076 2.48905 0.190105 3.12053 -28.184 10.7294 -19.1592 3.68274 0 2.84217e-14 1.40204e-15 -7.95139e-15 10 2.55832 2.84217e-14 -2.84217e-14 -1.25704e-14 -1.11319e-14 10 3.22368 0.508421 1.97842 -4.77083e-15 -3.18055e-15 3.18055e-15 5.21684 -0.091368 0.999158 -19.9818 0.871897 -2.3964 3.61937 -2.84217e-14 0 -24 2.78299e-15 -0 2.0521 -3.55271e-15 0 -20 3.18055e-15 -9.54166e-15 3.38211 0.517263 0.756737 -4.77083e-15 -3.18055e-15 3.18055e-15 5.17411 -0.084 0.313895 -20 4.77083e-15 3.18055e-15 3.94947 0 -2.84217e-14 -24 4.37326e-15 -1.27222e-14 2.47579 -7.10543e-15 0 -20 3.18055e-15 -0 3.36516 0.537895 -0.128947 -4.77083e-15 -3.18055e-15 3.18055e-15 4.63474 -0.022105 -0.478947 -19.9748 -1.02565 2.81938 3.44238 2.84217e-14 0 -24 -3.18055e-15 -0 2.3881 0 -2.84217e-14 -20 -1.59028e-15 -6.36111e-15 3.16105 0.469368 -1.20179 -4.77083e-15 -3.18055e-15 3.18055e-15 4.14105 -0.022105 -1.09053 -19.7815 -3.00948 8.30515 2.75653 0 -2.84217e-14 -24 -3.97569e-15 -0 1.74189 7.10543e-15 -2.84217e-14 -20 6.36111e-15 -2.22639e-14 
355.813 88.656 206.864 22.5801 15.3415 -62.034 -9.26699 -1.55872 0.0429866 -21.0472 -52.8879 -25.3469 0.0141955 -41.891 0.0679231 -0.602766 26.2218 -18.2044 0.312419 -42.94 -0.148515 8.8369 5.7995 24.6864 9.25789 -1.58781 -0.0292517 11.3736 -46.8477 -8.11806 0.0179401 -41.8708 -0.0196978 3.42039 31.2157 1.61412 1.11444 -41.0208 -0.19214 -13.6354 -10.9764 -15.4535 -0.0137404 14.3042 0.0381223 -4.20677 16.2791 10.3635 -0.00320101 9.71857 0.0111846 -0.770691 4.03573 2.50596 0.00759534 10.1205 0.00506898 -1.32166 6.41739 4.17828 0.0122112 9.72552 0.0117172 -0.335162 -0.341338 -0.373258 -0.010522 10.3844 0.0109367 -0.335513 -0.344335 -0.371353 0.0037803 9.46913 0.0128883 -6.35829 -6.3805 -6.51702 -3.19585 6.91316 0.00957715 -0.711887 -14.9889 22.5109 -12.7948 -0.0222991 0.00499472 69.8273 2.44725 53.7843 -26.5128 -0.0288874 0.0243242 10.1967 -46.9219 -5.82499 -25.9932 -0.0466685 0.00855815 17.3317 -22.2777 -18.8347 -2.48905 0.190105 3.12053 28.184 10.7294 19.1592 -3.68274 0 -5.68434e-14 -3.08942e-15 7.95139e-16 -10 -2.55832 0 -5.68434e-14 2.94921e-15 -1.59028e-15 -10 -3.22368 0.508421 1.97842 3.18055e-15 -6.36111e-15 4.77083e-15 -5.21684 -0.091368 0.999158 19.9818 0.871897 2.3964 -3.61937 0 0 24 0 3.18055e-15 -2.0521 0 2.84217e-14 20 7.15625e-15 3.18055e-15 -3.38211 0.517263 0.756737 3.18055e-15 -6.36111e-15 4.77083e-15 -5.17411 -0.084 0.313895 20 0 9.54166e-15 -3.94947 0 0 24 -9.54166e-15 6.36111e-15 -2.47579 -1.42109e-14 5.68434e-14 20 -7.05686e-15 1.27222e-14 -3.36516 0.537895 -0.128947 3.18055e-15 -6.36111e-15 4.77083e-15 -4.63474 -0.022105 -0.478947 19.9748 -1.02565 -2.81938 -3.44238 0 0 24 -3.18055e-15 -0 -2.3881 2.84217e-14 0 20 4.09993e-15 6.36111e-15 -3.16105 0.469368 -1.20179 3.18055e-15 -6.36111e-15 4.77083e-15 -4.14105 -0.022105 -1.09053 19.7815 -3.00948 -8.30515 -2.75653 0 -2.84217e-14 24 -4.77083e-15 -6.36111e-15 -1.74189 1.42109e-14 -1.42109e-14 20 -4.57205e-15 -6.36111e-15 3.21749 6.92975 -0.013686 15.4493 -14.1045 -30.3191 12.8002 -0.00743092 -0.0378678 -36.6949 33.1183 -70.3363 26.5023 -0.0200478 -0.0142473 32.7227 -83.9115 32.6944 25.9964 -0.0102124 -0.0181292 -26.2956 -20.7912 6.32089 2.48905 0.190105 3.12053 -28.184 10.7294 -19.1592 3.68274 -1.42109e-14 2.84217e-14 6.45924e-15 0 10 2.55832 1.42109e-14 -2.84217e-14 9.96927e-15 -1.59028e-15 10 3.22368 0.508421 1.97842 -6.36111e-15 6.36111e-15 3.18055e-15 5.21684 -0.091368 0.999158 -19.9818 0.871897 -2.3964 3.61937 0 2.84217e-14 -24 -9.93923e-16 6.36111e-15 2.0521 1.06581e-14 0 -20 0 3.18055e-15 3.38211 0.517263 0.756737 -6.36111e-15 6.36111e-15 3.18055e-15 5.17411 -0.084 0.313895 -20 1.59028e-15 9.54166e-15 3.94947 0 0 -24 1.19271e-15 -3.18055e-15 2.47579 -1.06581e-14 0 -20 0 1.27222e-14 3.36516 0.537895 -0.128947 -6.36111e-15 6.36111e-15 3.18055e-15 4.63474 -0.022105 -0.478947 -19.9748 -1.02565 2.81938 3.44238 0 0 -24 3.97569e-15 3.18055e-15 2.3881 1.42109e-14 0 -20 -3.18055e-15 -3.18055e-15 3.16105 0.469368 -1.20179 -6.36111e-15 6.36111e-15 3.18055e-15 4.14105 -0.022105 -1.09053 -19.7815 -3.00948 8.30515 2.75653 -5.68434e-14 0 -24 5.56597e-15 9.54166e-15 1.74189 1.42109e-14 -5.68434e-14 -20 0 3.18055e-15 
